<svg xmlns="http://www.w3.org/2000/svg" data-name="Layer 1" width="667.1889" height="648.09919" viewBox="0 0 667.1889 648.09919" xmlns:xlink="http://www.w3.org/1999/xlink"><path d="M796.8504,321.57165a5.63581,5.63581,0,0,1-.26351-10.58458l.91672-1.29076q-.00411-.19964-.00933-.39915c-.348-13.41149-43.7111,6.72091-49.26232,17.03775a44.774,44.774,0,0,0-4.85255,14.63521,179.50944,179.50944,0,0,1,11.82351-75.40153,173.26631,173.26631,0,0,1,8.01187-17.62277q3.692-7.03159,7.98611-13.70846A181.58825,181.58825,0,0,1,832.673,175.57681c9.34369,4.25033,18.28058,6.05307,26.29311-12.143,1.42526-3.23676,4.9772-5.13725,6.7777-8.17158-.95836-.23529-1.91423-.52118-2.84922-.8165-.28987-.09568-.5946-.197-.88452-.29254l-.109-.03689a5.58384,5.58384,0,0,1-.97424-10.14084q.87345-.49686,1.74729-.99286c.8889-.51479,1.7868-1.00865,2.67559-1.52333a2.77888,2.77888,0,0,0,.28161-.14865c1.01935-.58443,2.03261-1.15395,3.052-1.73838a16.1457,16.1457,0,0,0-3.07711-6.68814c-5.32033-6.718-15.9153-7.62281-23.31911-3.32671-7.41866,4.29017-11.76372,12.66847-13.06088,21.13128a64.70766,64.70766,0,0,0,1.10395,21.84179c-.56.33284-1.129.645-1.6889.978a182.7608,182.7608,0,0,0-28.7375,21.24406c5.70527-10.48114,3.94064-57.03809.5464-68.07516-4.0771-13.25708-22.24764-15.23575-28.66116-2.9379q-.09325.17874-.18522.35743,1.1613,1.4184,2.21951,2.91552a7.64465,7.64465,0,0,1-7.918,11.8466l-.154-.03413c-20.656,13.79028,2.70506,79.69911,17.67121,72.76672a186.547,186.547,0,0,0-26.49665,40.39546,176.93,176.93,0,0,0-10.24182,26.66927l.07729-.33144c5.14015-20.21088-24.30985-64.69657-37.09895-66.9232-7.36743-1.28273-13.97474-4.2145-15.61942,3.08063q-.03934.17464-.07792.34961a51.36823,51.36823,0,0,1,4.35991,4.67445q1.1612,1.41857,2.21948,2.91551a7.64474,7.64474,0,0,1-7.9181,11.84671l-.154-.03431c-.11044-.0257-.206-.04563-.31636-.07128-14.13746,18.44356,17.62176,69.44943,49.02667,69.37544l.015.00584a186.4935,186.4935,0,0,0-1.58991,38.62554L781.313,358.4013c.33-.40522.6506-.83122.96556-1.24228a50.846,50.846,0,0,1-11.27252-5.1788c4.572-2.59258,9.15564-5.21522,13.72763-7.80768a2.78662,2.78662,0,0,0,.28156-.14853c2.32576-1.33224,4.66084-2.644,6.98664-3.97637l.00177-.002a74.47743,74.47743,0,0,0,4.84765-18.47291Zm-11.194-112.53575.0335-.02111-.04513.051Zm-41.64849,79.681-.04471-.9467c.24192-.57719.46878-1.16009.68648-1.76384.06406-.16461.09814-.34061.1621-.505-.267,1.0838-.54882,2.1618-.80078,3.25143Z" transform="translate(-279.36708 -113.68188)" fill="#f1f2f2"/><path d="M731.16,329.07779h0c-.99343-118.05925-96.9653-213.474-215.24736-213.539-119.30334-.065-215.54446,97.80088-215.54446,217.04852V723.62367a38.06566,38.06566,0,0,0,38.06565,38.06566H731.16c118.95982,0,215.39591-98.293,215.39591-217.25277S850.11982,329.07779,731.16,329.07779Z" transform="translate(-279.36708 -113.68188)" fill="#6c63ff"/><path d="M731.16,327.22093h0c-.99343-118.05925-96.9653-213.47406-215.24736-213.539-64.67448,0-122.55285,28.72564-162.02971,74.0609A213.10271,213.10271,0,0,1,484.346,143.39164c118.28208.065,214.254,95.47982,215.24733,213.539h0c118.95982,0,215.39591,96.43609,215.39591,215.39591a214.60667,214.60667,0,0,1-52.72556,141.18646,215.03379,215.03379,0,0,0,84.2922-170.89624C946.55591,423.657,850.11982,327.22093,731.16,327.22093Z" transform="translate(-279.36708 -113.68188)" opacity="0.1" style="isolation:isolate"/><path d="M530.21857,459.34959c-8.77835-27.97616-28.74047-53.63489-56.34769-63.09234C446.262,386.79978,405.83571,401.20658,385.08,421.892c-37.96615,37.83783-39.89895,176.50419-13.81463,217.58144,5.18824-.27463,23.09094-.47776,28.342-.67443l7.42834-24.7583V638.555c40.98648-1.26665,86.60616,32.44552,126.351.34661C537.21339,609.81844,538.99685,487.32575,530.21857,459.34959Z" transform="translate(-279.36708 -113.68188)" fill="#2f2e41"/><circle cx="191.01404" cy="374.23728" r="59.20984" fill="#ffb7b7"/><path d="M511.06536,410.81752c-22.61753-13.78871-52.76085-14.18618-75.73583-.99844-22.9732,13.18775-37.83151,39.41789-37.33189,65.90322,33.09658,1.522,67.427,32.6052,103.118,1.98674l8.33164-20.3911,4.912,20.40618q16.11316-.00159,32.28754-.04239C547.84636,451.21894,533.68453,424.60625,511.06536,410.81752Z" transform="translate(-279.36708 -113.68188)" fill="#2f2e41"/><path d="M524.284,450.9665c13.58777-25.98266,37.7731-47.70649,66.61777-52.13235a61.75329,61.75329,0,0,1,22.75765,1.14965c42.47177,9.5318,69.04236,51.86931,60.74091,94.5986-1.64669,8.476-3.5699,17.24491-4.94388,26.98169a24.4543,24.4543,0,0,1-29.43616,20.415l-.15774-.03429-7.268-1.554c-21.6-4.57421-46.31539.59487-69.7494.31242-34.92653-.421-59.47338-34.514-48.33735-67.62034A152.98331,152.98331,0,0,1,524.284,450.9665Z" transform="translate(-279.36708 -113.68188)" fill="#e6e7e8"/><circle cx="298.75837" cy="375.98648" r="59.20984" fill="#ffb7b7"/><path d="M551.71845,406.58684c24.69963-9.5713,54.43809-4.63148,74.71856,12.41166,20.27873,17.04282,30.26386,45.48727,25.088,71.46674C618.681,486.11,579.39446,510.63158,549.68116,474.18359l-4.594-21.54317-8.44352,19.2158q-15.85887-2.85127-31.77107-5.752C508.372,439.84644,527.01721,416.15786,551.71845,406.58684Z" transform="translate(-279.36708 -113.68188)" fill="#e6e7e8"/><path d="M720.07866,552.39292a24.1041,24.1041,0,0,0-36.19122,7.50282L516.75755,618.61481l16.58379,35.24532,161.79922-60.29989a24.23473,24.23473,0,0,0,24.9381-41.16732Z" transform="translate(-279.36708 -113.68188)" fill="#ffb6b6"/><path d="M541.48719,591.11274l-24.69011,10.68271-13.19589,5.7154-8.61029,3.71867a27.77552,27.77552,0,0,0-10.02981,4.99314A28.04031,28.04031,0,0,0,509.29943,665.449l50.53246-5.77367a10.09712,10.09712,0,0,0,7.16742-4.34957c1.66846-2.44022,17.26786-9.79112,16.514-12.64117l6.6755-3.06105,9.68765-3.03484L636.24783,619.856h0L630.748,599.51673h0l5.088-24.96751c-.76119-2.81572-83.28837,17.99318-85.9268,16.74873A10.04533,10.04533,0,0,0,541.48719,591.11274Z" transform="translate(-279.36708 -113.68188)" fill="#3f3d56"/><path d="M612.25806,758.70472H381.4177a36.11016,36.11016,0,0,1-36.11016-36.11016V637.60985a36.11016,36.11016,0,0,1,36.11016-36.11016l29.53-41.6077H514.02442l98.23364,41.6077a36.11015,36.11015,0,0,1,36.11015,36.11016v84.98471A36.11015,36.11015,0,0,1,612.25806,758.70472Z" transform="translate(-279.36708 -113.68188)" fill="#3f3d56"/><path d="M694.90021,758.70472H488.4362A36.11016,36.11016,0,0,1,452.326,722.59456V637.60985a36.11016,36.11016,0,0,1,36.11016-36.11016l54.36548-41.6077H645.87843l49.02178,41.6077a36.11016,36.11016,0,0,1,36.11016,36.11016v84.98471A36.11016,36.11016,0,0,1,694.90021,758.70472Z" transform="translate(-279.36708 -113.68188)" fill="#2f2e41"/><path d="M509.37885,748.16663a23.18264,23.18264,0,0,1-35.42065,3.0022L329.73933,755.832l-18.43991.59626h0c-18.96735.61328-29.89283-21.331-17.97144-36.09638L306.13706,704.467l45.81424,7.18573,16.56586.726,106.58868,4.671a23.30816,23.30816,0,0,1,34.27295,31.117Z" transform="translate(-279.36708 -113.68188)" fill="#ffb6b6"/><path d="M382.16322,568.41992s-27.49085-6.97525-40.521,15.46311c-10.43158,17.96362-45.91672,85.90365-53.283,113.78781-35.94223,86.61871,47.62448,52.125,45.28635,60.29578L361.603,712.07575c12.14765-6.07379-11.23529,1.76519-14.31555-2.59l21.43085-23.29205,24.29529-12.14765,8.91449-95.10583Z" transform="translate(-279.36708 -113.68188)" fill="#3f3d56"/><path d="M482.94351,751.78681a23.18264,23.18264,0,0,0,35.42066,3.00219L662.583,759.45221l18.43991.59625h0c18.96735.61328,29.89282-21.331,17.97143-36.09637L686.1853,708.08722,640.37106,715.273l-16.56585.726-106.58869,4.671a23.30816,23.30816,0,0,0-34.27295,31.117Z" transform="translate(-279.36708 -113.68188)" fill="#ffb6b6"/><path d="M610.15915,572.0401s27.49084-6.97525,40.521,15.46311c10.43157,17.96362,45.91671,85.90365,53.283,113.78781,35.94224,86.61871-47.62448,52.125-45.28634,60.29577l-27.9574-45.89087c-12.14764-6.07379,11.23529,1.7652,14.31555-2.59L623.6041,689.8139l-24.29529-12.14764-8.91449-95.10583Z" transform="translate(-279.36708 -113.68188)" fill="#2f2e41"/></svg>