<svg xmlns="http://www.w3.org/2000/svg" viewBox="0 0 400 300" data-imageid="artificial-intelligence-flatline" imageName="Artificial intelligence" class="illustrations_image" style="width: 188px;"><g id="_464_artificial_intelligence_flatline" data-name="#464_artificial_intelligence_flatline"><path d="M208.29,267.15H143.35s-5.91-46.31,10.51-54.19S202,209,208.29,222.48,208.29,267.15,208.29,267.15Z" fill="#231f20"/><path d="M208.29,267.65H143.35a.5.5,0,0,1-.49-.44A159.26,159.26,0,0,1,142,243c.77-16.87,4.71-27.13,11.69-30.48,10.57-5.07,28.26-5.43,41.16-.84,7,2.51,11.86,6.17,13.94,10.6,6.32,13.46.3,43.69,0,45A.5.5,0,0,1,208.29,267.65Zm-64.49-1h64.08c.7-3.69,5.75-31.61,0-43.95-2-4.18-6.59-7.67-13.37-10.09-12.68-4.51-30-4.17-40.39.8C139,220.64,143.26,261.92,143.8,266.65Z" fill="#231f20"/><path d="M217.45,199.84h14s14.4,2.61,29.18,18.7,17.73,48.61,17.73,48.61h-70S195,219.86,177.38,214.6s-22.34,3-25.06,18.89,0,33.66,0,33.66H121.68s2.87-32.52,15.55-50.58,32.93-16.73,32.93-16.73Z" fill="#68e1fd" class="target-color"/><path d="M278.32,267.65h-70a.5.5,0,0,1-.48-.37c-.13-.47-13.42-47.08-30.57-52.2-7.15-2.13-12.4-2.07-16.06.2-4.16,2.59-6.59,7.89-8.37,18.3-2.68,15.66,0,33.31,0,33.49a.5.5,0,0,1-.49.58H121.68a.5.5,0,0,1-.37-.17.52.52,0,0,1-.13-.38c0-.33,3-32.85,15.64-50.81s33.17-17,33.38-16.95h61.21c.23,0,14.83,2.84,29.55,18.87s17.83,48.56,17.86,48.89a.52.52,0,0,1-.13.38A.5.5,0,0,1,278.32,267.65Zm-69.65-1h69.1c-.48-4.33-4.1-33.12-17.55-47.77-14.48-15.76-28.76-18.52-28.9-18.55H170.16c-.23,0-20.15-1.09-32.52,16.52-11.57,16.47-15,45.46-15.41,49.79h29.51c-.43-3.19-2.35-19,.09-33.24,1.34-7.84,3.34-15.57,8.82-19,3.92-2.43,9.44-2.54,16.88-.32s15,11.82,22.37,28.52A207.84,207.84,0,0,1,208.67,266.65Z" fill="#231f20"/><rect x="182.19" y="141.39" width="24.14" height="54.18" transform="translate(388.52 336.96) rotate(-180)" fill="#231f20"/><path d="M206.33,196.07H182.19a.5.5,0,0,1-.5-.5V141.39a.5.5,0,0,1,.5-.5h24.14a.5.5,0,0,1,.5.5v54.18A.5.5,0,0,1,206.33,196.07Zm-23.64-1h23.14V141.89H182.69Z" fill="#231f20"/><path d="M217.36,35.48h-40c-15,0-29.58,7.86-35.08,21.22s-4,36.07-2.75,50.7c2.77,33.29,35.47,51.33,42,49.52s39.3-24,39.3-24Z" fill="#231f20"/><path d="M180.51,157.55c-3.37,0-9.35-2.6-15.28-6.74-7.21-5-24.18-19.32-26.18-43.37-1.51-18.16-2.36-38.42,2.79-50.93C147.14,43.64,161.42,35,177.38,35h40a.5.5,0,0,1,.5.48l3.54,97.47a.49.49,0,0,1-.22.43c-1.34.91-32.87,22.23-39.45,24A4.48,4.48,0,0,1,180.51,157.55ZM177.38,36c-15.55,0-29.47,8.41-34.62,20.92-5.75,14-3.7,38.62-2.72,50.46C142,131,158.71,145,165.8,150s13.44,7.06,15.67,6.45c6.13-1.69,36-21.77,38.92-23.75L216.88,36Z" fill="#231f20"/><path d="M197.58,87.78c-10.26-8-27.58-.25-32.51-12.07s.5-25.37,15.52-28.57,45.86-2.22,58.13,9.11,5.51,28.33-4.39,36.21S212.85,99.73,197.58,87.78Z" fill="#fff"/><path d="M220.35,98.22c-6.92,0-14.49-3.33-23.07-10-4.44-3.47-10.24-3.91-15.85-4.34-7.18-.55-14-1.06-16.82-7.93a21.51,21.51,0,0,1,.49-18.31c2.91-5.56,8.38-9.45,15.39-10.94,14.16-3,45.84-2.52,58.56,9.24a20.12,20.12,0,0,1,6.77,15.89c-.28,7.61-4.67,15.89-11.18,21.07A22.47,22.47,0,0,1,220.35,98.22ZM198.23,46.07a88.06,88.06,0,0,0-17.53,1.56C174,49.06,168.76,52.76,166,58.05a20.52,20.52,0,0,0-.44,17.47c2.62,6.3,8.8,6.77,16,7.31,5.76.44,11.71.9,16.38,4.55h0c14.45,11.32,25.93,12.8,36.13,4.69,6.29-5,10.53-13,10.8-20.33a19.18,19.18,0,0,0-6.44-15.12C229.9,48.79,212.74,46.07,198.23,46.07Z" fill="#231f20"/><circle cx="196.25" cy="138.06" r="18.86" fill="#68e1fd" class="target-color"/><path d="M196.25,157.42a19.37,19.37,0,1,1,19.36-19.36A19.39,19.39,0,0,1,196.25,157.42Zm0-37.73a18.37,18.37,0,1,0,18.36,18.37A18.39,18.39,0,0,0,196.25,119.69Z" fill="#231f20"/><circle cx="196.25" cy="138.06" r="12.04" fill="#fff"/><path d="M196.25,150.6a12.54,12.54,0,1,1,12.54-12.54A12.55,12.55,0,0,1,196.25,150.6Zm0-24.08a11.54,11.54,0,1,0,11.54,11.54A11.54,11.54,0,0,0,196.25,126.52Z" fill="#231f20"/><line x1="208.29" y1="138.06" x2="184.21" y2="138.06" fill="#fff"/><path d="M208.29,138.56H184.21a.5.5,0,0,1-.5-.5.5.5,0,0,1,.5-.5h24.08a.5.5,0,0,1,.5.5A.5.5,0,0,1,208.29,138.56Z" fill="#231f20"/><path d="M254.48,106.5s6.73-27.87.49-43.84c-10.1-25.86-37.68-29.81-37.68-29.81v9.61l-9,.74,1.12,52.71c-2.47,1.47-9.36,2-9.86,6.15s1.65,33.74,2.63,42.61,19,24.14,46.63,21.67c0,0,.5-11.94.5-14.28s4.92-3.15,5.29-4.53a15.08,15.08,0,0,0,0-4.21s4.93-1.73,4.68-3.21a8.18,8.18,0,0,0-1.85-3.2s10.72-.12,11.7-4.06S254.48,106.5,254.48,106.5Z" fill="#68e1fd" class="target-color"/><path d="M243,167.1a56.27,56.27,0,0,1-27.76-6.91c-7.7-4.4-13-10.47-13.59-15.46-.9-8.15-3.13-38.39-2.62-42.73.38-3.27,4.13-4.45,7.15-5.4a19.5,19.5,0,0,0,2.69-1l-1.11-52.4a.5.5,0,0,1,.46-.51l8.54-.7V32.85a.48.48,0,0,1,.17-.37.49.49,0,0,1,.4-.12c.28,0,28,4.28,38.08,30.11,5.93,15.19.19,41.25-.43,43.92,2.12,3,15.6,22.63,14.61,26.58-.9,3.58-8.29,4.27-11.16,4.41a6.8,6.8,0,0,1,1.31,2.65c.27,1.61-3.1,3.05-4.63,3.62a13.58,13.58,0,0,1-.06,4c-.21.79-1.23,1.3-2.4,1.9-1.35.68-2.87,1.44-2.87,2.5,0,2.32-.48,13.82-.5,14.31a.49.49,0,0,1-.45.47C246.91,167,245,167.1,243,167.1Zm5.78-.76h0Zm-40-122.68,1.11,52.23a.5.5,0,0,1-.25.44,16,16,0,0,1-3.15,1.22c-2.88.91-6.15,1.94-6.46,4.57-.48,4.06,1.61,33.33,2.63,42.5,1,8.8,19,23.46,45.65,21.26.09-2.17.48-11.77.48-13.82,0-1.67,1.81-2.59,3.42-3.39.8-.41,1.79-.91,1.89-1.27a14.15,14.15,0,0,0,0-4,.51.51,0,0,1,.34-.54c2.37-.83,4.44-2.09,4.35-2.64a7.8,7.8,0,0,0-1.72-2.95.49.49,0,0,1-.1-.53.51.51,0,0,1,.46-.31c2.87,0,10.49-.76,11.22-3.68.68-2.73-8.35-17-14.58-25.95a.51.51,0,0,1-.08-.4c.07-.28,6.62-27.9.51-43.54-9.07-23.25-32.73-28.64-36.71-29.39v9a.5.5,0,0,1-.46.5Z" fill="#231f20"/><path d="M247.81,144c-2,0-4.24-.05-6.56-.22-7-.49-9.19-1.91-9.28-2a.5.5,0,0,1-.14-.69.51.51,0,0,1,.7-.14s2.12,1.34,8.79,1.81a103.9,103.9,0,0,0,13.24,0,.51.51,0,0,1,.54.46.5.5,0,0,1-.46.53S251.75,144,247.81,144Z" fill="#231f20"/><rect x="179.07" y="161.91" width="32.8" height="6.57" rx="3.28" transform="translate(390.94 330.39) rotate(-180)" fill="#68e1fd" class="target-color"/><path d="M208.59,169H182.35a3.79,3.79,0,0,1,0-7.57h26.24a3.79,3.79,0,0,1,0,7.57Zm-26.24-6.57a2.79,2.79,0,0,0,0,5.57h26.24a2.79,2.79,0,0,0,0-5.57Z" fill="#231f20"/><rect x="179.07" y="171.76" width="32.8" height="6.57" rx="3.28" transform="translate(390.94 350.09) rotate(180)" fill="#68e1fd" class="target-color"/><path d="M208.59,178.83H182.35a3.79,3.79,0,0,1,0-7.57h26.24a3.79,3.79,0,0,1,0,7.57Zm-26.24-6.57a2.79,2.79,0,0,0,0,5.57h26.24a2.79,2.79,0,0,0,0-5.57Z" fill="#231f20"/><rect x="179.07" y="181.61" width="32.8" height="6.57" rx="3.28" transform="translate(390.94 369.8) rotate(-180)" fill="#68e1fd" class="target-color"/><path d="M208.59,188.68H182.35a3.79,3.79,0,0,1,0-7.57h26.24a3.79,3.79,0,0,1,0,7.57Zm-26.24-6.57a2.79,2.79,0,0,0,0,5.57h26.24a2.79,2.79,0,0,0,0-5.57Z" fill="#231f20"/><rect x="183.36" y="57.54" width="15.24" height="15.24" transform="translate(381.97 130.32) rotate(-180)" fill="#68e1fd" class="target-color"/><path d="M200.53,77.11H181.44a2.4,2.4,0,0,1-2.4-2.4V55.61a2.4,2.4,0,0,1,2.4-2.4h19.09a2.4,2.4,0,0,1,2.4,2.4v19.1A2.4,2.4,0,0,1,200.53,77.11Zm-19.09-22.9a1.4,1.4,0,0,0-1.4,1.4v19.1a1.4,1.4,0,0,0,1.4,1.4h19.09a1.4,1.4,0,0,0,1.4-1.4V55.61a1.4,1.4,0,0,0-1.4-1.4Z" fill="#d1d3d4"/><path d="M196.05,60.53h-3.88a.5.5,0,0,1,0-1h3.88a.5.5,0,0,1,0,1Z" fill="#231f20"/><path d="M207.19,81.75H196.25a.5.5,0,0,1-.5-.5V76.61a.5.5,0,0,1,.5-.5.5.5,0,0,1,.5.5v4.14h10.44a.5.5,0,0,1,0,1Z" fill="#d1d3d4"/><path d="M173.33,78.43a.5.5,0,0,1-.5-.5V71.62a.5.5,0,0,1,.5-.5h6.21a.5.5,0,0,1,0,1h-5.71v5.81A.51.51,0,0,1,173.33,78.43Z" fill="#d1d3d4"/><path d="M179.54,63.24h-8.72a.49.49,0,0,1-.39-.19l-4.11-5.2a.5.5,0,0,1,.79-.62l3.95,5h8.48a.5.5,0,0,1,.5.5A.51.51,0,0,1,179.54,63.24Z" fill="#d1d3d4"/><path d="M187.4,54.21a.5.5,0,0,1-.5-.5v-4.6a.5.5,0,0,1,.5-.5.5.5,0,0,1,.5.5v4.6A.5.5,0,0,1,187.4,54.21Z" fill="#d1d3d4"/><path d="M194.11,53.55a.5.5,0,0,1-.5-.5V49.11a.51.51,0,0,1,.3-.46l5.38-2.3a.5.5,0,0,1,.65.26.5.5,0,0,1-.26.66l-5.07,2.17v3.61A.5.5,0,0,1,194.11,53.55Z" fill="#d1d3d4"/><path d="M207.19,65h-4.76a.5.5,0,0,1-.5-.5.51.51,0,0,1,.5-.5h4.76a.5.5,0,0,1,.5.5A.5.5,0,0,1,207.19,65Z" fill="#d1d3d4"/><circle cx="166.72" cy="109.73" r="21.62" fill="#68e1fd" class="target-color"/><path d="M166.72,131.85a22.12,22.12,0,1,1,22.12-22.12A22.15,22.15,0,0,1,166.72,131.85Zm0-43.24a21.12,21.12,0,1,0,21.12,21.12A21.15,21.15,0,0,0,166.72,88.61Z" fill="#231f20"/><circle cx="166.72" cy="109.73" r="14.4" fill="#68e1fd" class="target-color"/><path d="M166.72,124.63a14.9,14.9,0,1,1,14.89-14.9A14.92,14.92,0,0,1,166.72,124.63Zm0-28.8a13.9,13.9,0,1,0,13.89,13.9A13.92,13.92,0,0,0,166.72,95.83Z" fill="#231f20"/><circle cx="166.72" cy="109.73" r="7.39" fill="#fff"/><path d="M166.72,117.62a7.89,7.89,0,1,1,7.89-7.89A7.9,7.9,0,0,1,166.72,117.62Zm0-14.78a6.89,6.89,0,1,0,6.89,6.89A6.9,6.9,0,0,0,166.72,102.84Z" fill="#231f20"/><path d="M173.13,113.9a.52.52,0,0,1-.29-.09l-12.18-8.27a.51.51,0,0,1-.13-.7.49.49,0,0,1,.69-.13L173.41,113a.51.51,0,0,1,.13.7A.5.5,0,0,1,173.13,113.9Z" fill="#231f20"/><path d="M171.48,115.88a.49.49,0,0,1-.28-.09l-11.81-7.86a.5.5,0,1,1,.55-.83L171.75,115a.49.49,0,0,1,.14.69A.48.48,0,0,1,171.48,115.88Z" fill="#231f20"/><rect x="166.72" y="192.94" width="60.32" height="6.9" rx="3.45" transform="translate(393.75 392.78) rotate(180)" fill="#68e1fd" class="target-color"/><path d="M223.58,200.34H170.16a4,4,0,0,1,0-7.9h53.42a4,4,0,0,1,0,7.9Zm-53.42-6.9a3,3,0,0,0,0,5.9h53.42a3,3,0,1,0,0-5.9Z" fill="#231f20"/><circle cx="171.48" cy="235.85" r="25.19" fill="#fff"/><path d="M171.48,261.54a25.69,25.69,0,1,1,25.69-25.69A25.72,25.72,0,0,1,171.48,261.54Zm0-50.38a24.69,24.69,0,1,0,24.69,24.69A24.72,24.72,0,0,0,171.48,211.16Z" fill="#231f20"/><path d="M171.48,254.16a18.31,18.31,0,1,1,18.31-18.31A18.33,18.33,0,0,1,171.48,254.16Zm0-35.62a17.31,17.31,0,1,0,17.31,17.31A17.32,17.32,0,0,0,171.48,218.54Z" fill="#d1d3d4"/><path d="M188.14,242.64a.53.53,0,0,1-.24-.06l-31.07-16.75a.49.49,0,0,1-.21-.67.5.5,0,0,1,.68-.21l31.08,16.75a.5.5,0,0,1,.2.68A.49.49,0,0,1,188.14,242.64Z" fill="#d1d3d4"/><path d="M185.74,247a.53.53,0,0,1-.24-.06l-31.05-16.59a.5.5,0,0,1,.47-.89L186,246.08a.5.5,0,0,1,.21.68A.49.49,0,0,1,185.74,247Z" fill="#d1d3d4"/><path d="M254.11,228.4H227a.5.5,0,0,1-.5-.5.51.51,0,0,1,.5-.5h27.08a.5.5,0,0,1,.5.5A.5.5,0,0,1,254.11,228.4Z" fill="#231f20"/><ellipse cx="240.57" cy="106.43" rx="3.3" ry="5.35" fill="#231f20"/></g></svg>