<svg xmlns="http://www.w3.org/2000/svg" data-name="Layer 1" width="884.36525" height="726.51352" viewBox="0 0 884.36525 726.51352" xmlns:xlink="http://www.w3.org/1999/xlink"><circle cx="203.36525" cy="54" r="54" fill="#ff6584"/><path d="M896.68263,590.24324h-68V534.45186l24.234-.13617a17.99991,17.99991,0,0,0,16.97516-12.30762l17.02429-51.07275a18,18,0,0,0-17.07629-23.69208H828.68263v-24h51.66845A18,18,0,0,0,897.8935,409.276l11.72412-51a18,18,0,0,0-17.54242-22.03272H828.68263v-6a12,12,0,0,0-24,0v6h-425v-6a12,12,0,0,0-24,0v6H305.29005A18,18,0,0,0,287.74763,358.276l11.72412,51a18,18,0,0,0,17.54242,13.96728h38.66846v24H327.52479a17.99995,17.99995,0,0,0-17.13251,23.52045L327.7685,524.6899a18,18,0,0,0,17.23364,12.47924l10.68049-.06v53.13409h-55a17.99994,17.99994,0,0,0-18,17.99994v.00006a18,18,0,0,0,18,18h55v132a12,12,0,0,0,24,0v-132h425v132a12,12,0,0,0,24,0v-132h68a18,18,0,0,0,18-18v-.00006A17.99994,17.99994,0,0,0,896.68263,590.24324Zm-517-167h425v24h-425Zm0,167V536.97432l425-2.38763v55.65655Z" transform="translate(-157.81737 -86.74324)" fill="#e6e6e6"/><path d="M846.99937,643.53348c5.25347-42.2439,31.43394-83.86642,71.72185-97.61374a196.13321,196.13321,0,0,0,.00972,134.65867c6.1907,16.74561,14.81987,34.72619,8.99669,51.60323-3.62311,10.50138-12.48655,18.53584-22.3941,23.55959-9.90816,5.02374-20.90414,7.41815-31.76251,9.76466l-2.137,1.76741C854.19653,728.35013,841.7459,685.77739,846.99937,643.53348Z" transform="translate(-157.81737 -86.74324)" fill="#e6e6e6"/><path d="M919.121,546.71851a167.64109,167.64109,0,0,0-41.67531,94.34834c-.73227,7.51327-.82122,15.19859.82118,22.60422a41.40529,41.40529,0,0,0,10.298,19.20465c4.64154,5.09967,9.97989,9.77857,13.301,15.91773,3.50057,6.471,3.63507,13.82337,1.2386,20.69688-2.93216,8.40994-8.71128,15.26475-14.59573,21.77179-6.53356,7.22482-13.43435,14.62564-16.21161,24.20384-.3365,1.16054-2.11758.57054-1.78158-.58824,4.832-16.66443,21.0087-26.13015,28.72336-41.13959,3.5998-7.00367,5.11077-15.13463,1.736-22.52773-2.95108-6.46494-8.45191-11.29458-13.1962-16.41748-4.98158-5.37914-8.8012-11.281-10.7689-18.40284-2.01285-7.28522-2.22418-14.99022-1.6872-22.48925A162.6417,162.6417,0,0,1,887.201,594.47535a170.6141,170.6141,0,0,1,30.67855-49.164c.80219-.89829,2.0384.51471,1.24145,1.40713Z" transform="translate(-157.81737 -86.74324)" fill="#fff"/><path d="M877.95071,629.71282a25.1515,25.1515,0,0,1-19.14525-26.34712c.09559-1.20337,1.97-1.11135,1.87432.09361A23.28975,23.28975,0,0,0,878.539,627.93124c1.17453.27924.57957,2.05923-.58825,1.78158Z" transform="translate(-157.81737 -86.74324)" fill="#fff"/><path d="M885.8709,680.59994a48.47746,48.47746,0,0,0,21.6481-27.91947c.3406-1.1593,2.12178-.56966,1.78159.58825a50.42388,50.42388,0,0,1-22.58587,29.00695c-1.04037.61712-1.87854-1.062-.84382-1.67573Z" transform="translate(-157.81737 -86.74324)" fill="#fff"/><path d="M896.28949,578.23518a14.237,14.237,0,0,0,13.49183-.68488c1.032-.63,1.86914,1.04981.84382,1.67572a15.95368,15.95368,0,0,1-14.9239.79075.96962.96962,0,0,1-.59667-1.18492.94284.94284,0,0,1,1.18492-.59667Z" transform="translate(-157.81737 -86.74324)" fill="#fff"/><path d="M1041.52444,621.3725c-.63323.41171-1.26646.82343-1.90046,1.251A187.4934,187.4934,0,0,0,1015.65086,641.34c-.58606.52257-1.17213,1.061-1.742,1.59932a197.65933,197.65933,0,0,0-42.92754,58.76248,191.95307,191.95307,0,0,0-10.51443,27.20393c-3.8798,12.87358-7.06219,27.14052-14.74215,37.67061a32.93141,32.93141,0,0,1-2.5654,3.16693H873.756c-.15773-.07915-.31623-.14255-.47473-.22171l-2.77107.12671c.11134-.49087.23737-.99759.3487-1.48846.0634-.285.14227-.57.20567-.855.04716-.19.0951-.38011.1268-.55427.01546-.06331.0317-.12661.04716-.17416.0317-.17416.07964-.33256.11134-.49087q1.04494-4.25155,2.1533-8.5032c0-.01585,0-.01585.01546-.0317,5.68517-21.58265,13.22209-42.88028,23.752-62.35689.317-.58587.63324-1.1876.98194-1.77347a183.165,183.165,0,0,1,16.45242-24.95543,161.92949,161.92949,0,0,1,10.7835-12.33517,134.65278,134.65278,0,0,1,33.6958-25.24044c24.89242-13.14275,53.711-18.17815,80.31372-10.15C1040.17834,620.945,1040.84405,621.15079,1041.52444,621.3725Z" transform="translate(-157.81737 -86.74324)" fill="#e6e6e6"/><path d="M1041.36841,622.25337a167.64109,167.64109,0,0,0-90.07962,50.24045c-5.10818,5.558-9.8063,11.6408-12.95363,18.54261a41.40533,41.40533,0,0,0-3.34013,21.534c.63566,6.86633,2.081,13.81623,1.0365,20.71751-1.101,7.27432-5.42022,13.22576-11.472,17.271-7.40452,4.9495-16.1459,6.94326-24.762,8.59592-9.56652,1.835-19.53222,3.58935-27.51644,9.56491-.9674.724-2.03428-.8194-1.06834-1.54232,13.89118-10.39645,32.50643-8.21478,47.70287-15.55421,7.09094-3.42472,13.19276-9.00712,14.94936-16.94193,1.53607-6.93865.05174-14.10673-.652-21.05347-.7389-7.2942-.2353-14.3062,2.48142-21.17726,2.779-7.02871,7.24927-13.308,12.19294-18.97222a162.64144,162.64144,0,0,1,39.24179-32.31186,170.61374,170.61374,0,0,1,54.09521-20.78408c1.18133-.23425,1.31765,1.63823.144,1.871Z" transform="translate(-157.81737 -86.74324)" fill="#fff"/><path d="M958.52793,663.73232a25.15152,25.15152,0,0,1,.57637-32.56348c.80084-.90326,2.24208.29876,1.44018,1.20323a23.28974,23.28974,0,0,0-.47423,30.29192c.76967.93011-.77705,1.99312-1.54232,1.06833Z" transform="translate(-157.81737 -86.74324)" fill="#fff"/><path d="M934.2142,709.13133a48.47747,48.47747,0,0,0,34.09424-9.25848c.96993-.72057,2.0371.82262,1.06834,1.54232a50.42388,50.42388,0,0,1-35.49774,9.56217c-1.20223-.13363-.86055-1.97891.33516-1.846Z" transform="translate(-157.81737 -86.74324)" fill="#fff"/><path d="M1004.16351,633.67151a14.23692,14.23692,0,0,0,11.18482,7.57617c1.20333.11833.86034,1.96357-.33516,1.846a15.95366,15.95366,0,0,1-12.392-8.35384.96961.96961,0,0,1,.237-1.30533.94284.94284,0,0,1,1.30533.237Z" transform="translate(-157.81737 -86.74324)" fill="#fff"/><path d="M180.99937,643.53348c5.25347-42.2439,31.43394-83.86642,71.72185-97.61374a196.13321,196.13321,0,0,0,.00972,134.65867c6.1907,16.74561,14.81987,34.72619,8.99669,51.60323-3.62311,10.50138-12.48655,18.53584-22.3941,23.55959-9.90816,5.02374-20.90414,7.41815-31.76251,9.76466l-2.137,1.76741C188.19653,728.35013,175.7459,685.77739,180.99937,643.53348Z" transform="translate(-157.81737 -86.74324)" fill="#e6e6e6"/><path d="M253.121,546.71851a167.64109,167.64109,0,0,0-41.67531,94.34834c-.73227,7.51327-.82122,15.19859.82118,22.60422a41.40529,41.40529,0,0,0,10.298,19.20465c4.64154,5.09967,9.97989,9.77857,13.301,15.91773,3.50057,6.471,3.63507,13.82337,1.2386,20.69688-2.93216,8.40994-8.71128,15.26475-14.59573,21.77179-6.53356,7.22482-13.43435,14.62564-16.21161,24.20384-.3365,1.16054-2.11758.57054-1.78158-.58824,4.832-16.66443,21.0087-26.13015,28.72336-41.13959,3.5998-7.00367,5.11077-15.13463,1.736-22.52773-2.95108-6.46494-8.45191-11.29458-13.1962-16.41748-4.98158-5.37914-8.8012-11.281-10.7689-18.40284-2.01285-7.28522-2.22418-14.99022-1.6872-22.48925A162.6417,162.6417,0,0,1,221.201,594.47535a170.6141,170.6141,0,0,1,30.67855-49.164c.80219-.89829,2.0384.51471,1.24145,1.40713Z" transform="translate(-157.81737 -86.74324)" fill="#fff"/><path d="M211.95071,629.71282a25.1515,25.1515,0,0,1-19.14525-26.34712c.09559-1.20337,1.97-1.11135,1.87432.09361A23.28975,23.28975,0,0,0,212.539,627.93124c1.17453.27924.57957,2.05923-.58825,1.78158Z" transform="translate(-157.81737 -86.74324)" fill="#fff"/><path d="M219.8709,680.59994a48.47746,48.47746,0,0,0,21.6481-27.91947c.3406-1.1593,2.12178-.56966,1.78159.58825a50.42388,50.42388,0,0,1-22.58587,29.00695c-1.04037.61712-1.87854-1.062-.84382-1.67573Z" transform="translate(-157.81737 -86.74324)" fill="#fff"/><path d="M230.28949,578.23518a14.237,14.237,0,0,0,13.49183-.68488c1.032-.63,1.86914,1.04981.84382,1.67572a15.95368,15.95368,0,0,1-14.9239.79075.96962.96962,0,0,1-.59667-1.18492.94284.94284,0,0,1,1.18492-.59667Z" transform="translate(-157.81737 -86.74324)" fill="#fff"/><path d="M375.52444,621.3725c-.63323.41171-1.26646.82343-1.90046,1.251A187.4934,187.4934,0,0,0,349.65086,641.34c-.58606.52257-1.17213,1.061-1.742,1.59932a197.65933,197.65933,0,0,0-42.92754,58.76248,191.95307,191.95307,0,0,0-10.51443,27.20393c-3.8798,12.87358-7.06219,27.14052-14.74215,37.67061a32.93141,32.93141,0,0,1-2.5654,3.16693H207.756c-.15773-.07915-.31623-.14255-.47473-.22171l-2.77107.12671c.11134-.49087.23737-.99759.3487-1.48846.0634-.285.14227-.57.20567-.855.04716-.19.0951-.38011.1268-.55427.01546-.06331.0317-.12661.04716-.17416.0317-.17416.07964-.33256.11134-.49087q1.04494-4.25155,2.1533-8.5032c0-.01585,0-.01585.01546-.0317,5.68517-21.58265,13.22209-42.88028,23.752-62.35689.317-.58587.63324-1.1876.98194-1.77347a183.165,183.165,0,0,1,16.45242-24.95543,161.92949,161.92949,0,0,1,10.7835-12.33517,134.65278,134.65278,0,0,1,33.6958-25.24044c24.89242-13.14275,53.711-18.17815,80.31372-10.15C374.17834,620.945,374.84405,621.15079,375.52444,621.3725Z" transform="translate(-157.81737 -86.74324)" fill="#e6e6e6"/><path d="M375.36841,622.25337a167.64109,167.64109,0,0,0-90.07962,50.24045c-5.10818,5.558-9.8063,11.6408-12.95363,18.54261a41.40533,41.40533,0,0,0-3.34013,21.534c.63566,6.86633,2.081,13.81623,1.0365,20.71751-1.101,7.27432-5.42022,13.22576-11.472,17.271-7.40452,4.9495-16.1459,6.94326-24.762,8.59592-9.56652,1.835-19.53222,3.58935-27.51644,9.56491-.9674.724-2.03428-.8194-1.06834-1.54232,13.89118-10.39645,32.50643-8.21478,47.70287-15.55421,7.09094-3.42472,13.19276-9.00712,14.94936-16.94193,1.53607-6.93865.05174-14.10673-.652-21.05347-.7389-7.2942-.2353-14.3062,2.48142-21.17726,2.77905-7.02871,7.24927-13.308,12.19294-18.97222a162.64144,162.64144,0,0,1,39.24179-32.31186,170.61374,170.61374,0,0,1,54.09521-20.78408c1.18133-.23425,1.31765,1.63823.144,1.871Z" transform="translate(-157.81737 -86.74324)" fill="#fff"/><path d="M292.52793,663.73232a25.15152,25.15152,0,0,1,.57637-32.56348c.80084-.90326,2.24208.29876,1.44018,1.20323a23.28974,23.28974,0,0,0-.47423,30.29192c.76967.93011-.777,1.99312-1.54232,1.06833Z" transform="translate(-157.81737 -86.74324)" fill="#fff"/><path d="M268.2142,709.13133a48.47747,48.47747,0,0,0,34.09424-9.25848c.96993-.72057,2.0371.82262,1.06834,1.54232a50.42388,50.42388,0,0,1-35.49774,9.56217c-1.20223-.13363-.86055-1.97891.33516-1.846Z" transform="translate(-157.81737 -86.74324)" fill="#fff"/><path d="M338.16351,633.67151a14.23692,14.23692,0,0,0,11.18482,7.57617c1.20333.11833.86034,1.96357-.33516,1.846a15.95366,15.95366,0,0,1-12.392-8.35384.96961.96961,0,0,1,.237-1.30533.94284.94284,0,0,1,1.30533.237Z" transform="translate(-157.81737 -86.74324)" fill="#fff"/><path d="M458.63946,164.816c-4.38226-3.09332-9.17677-6.319-14.53916-6.19-12.97877.31209-19.97628,19.33837-32.94169,18.66928-8.26839-.42672-13.75723-8.82626-21.456-11.87189-10.023-3.96491-22.77811,3.78951-23.87157,14.51253l1.28721-1.17812a310.78279,310.78279,0,0,0,119.06438,5.5005Q472.41116,174.53716,458.63946,164.816Z" transform="translate(-157.81737 -86.74324)" fill="#e6e6e6"/><path d="M645.42056,214.15965c-3.14425-2.21944-6.58428-4.53384-10.43177-4.44132-9.31219.22392-14.33287,13.87517-23.63547,13.3951-5.93253-.30617-9.87074-6.33279-15.39456-8.518-7.19147-2.8448-16.34317,2.719-17.12772,10.41266l.92357-.84529a222.985,222.985,0,0,0,85.428,3.94657Q655.30168,221.13451,645.42056,214.15965Z" transform="translate(-157.81737 -86.74324)" fill="#e6e6e6"/><path d="M787.07164,145.74c-2.089-1.47455-4.37445-3.01218-6.93064-2.95072-6.18681.14877-9.52244,9.21836-15.70288,8.89941-3.94144-.20341-6.5579-4.20737-10.22781-5.65918-4.77785-1.89-10.858,1.80641-11.37927,6.91794l.6136-.56159a148.14651,148.14651,0,0,0,56.75648,2.622Q793.63643,150.3739,787.07164,145.74Z" transform="translate(-157.81737 -86.74324)" fill="#e6e6e6"/><path d="M647.66533,525.5004A12.9539,12.9539,0,0,0,657.95761,510.516a13.36126,13.36126,0,0,0-.52268-2.05376l74.0461-70.7609-21.96518-7.378-68.92767,70.45059a13.06847,13.06847,0,0,0-7.43881,14.10216A12.629,12.629,0,0,0,647.66533,525.5004Z" transform="translate(-157.81737 -86.74324)" fill="#9e616a"/><path d="M780.51124,362.32859s15.63819,3.46883,13.59315,22.25353-44.82427,57.77463-51.53715,64.27208-51.85295,27.781-51.85295,27.781L673.46072,457.64Z" transform="translate(-157.81737 -86.74324)" fill="#6c63ff"/><polygon points="464.821 628.494 448.899 624.357 455.413 552.833 478.911 558.939 464.821 628.494" fill="#9e616a"/><path d="M610.24038,680.48c-.06-.14068-5.96117-14.17952-2.08775-27.29475a23.0177,23.0177,0,0,0,.65853-3.86536,26.215,26.215,0,0,1,.80073-4.556,24.9621,24.9621,0,0,1,1.67024-3.8918,25.83248,25.83248,0,0,0,1.72572-4.02633c9.31965-31.16875,22.32329-73.52787,31.34718-98.32182,10.13349-27.8427,119.825-20.21477,126.22843-19.74407l19.43277-13.84521,7.2537,48.9744-69.08269,21.94857-.0561.01789-56.25694-.11695-1.99371,5.97278a11.67972,11.67972,0,0,1,1.162,8.44786,10.27367,10.27367,0,0,1-4.96757,6.73831l-1.53995.82921L645.7025,654.16916a27.65378,27.65378,0,0,1-5.06105,15.799l-.41019.56848-7.24473,16.03561-22.6581-5.887Z" transform="translate(-157.81737 -86.74324)" fill="#2f2e41"/><path d="M622.54872,736.24907,563.249,720.83919l.17206-.84953A26.78226,26.78226,0,0,1,573.92649,703.261a21.22769,21.22769,0,0,1,17.87058-3.41626l.00146.00038,12.7171-6.49316,18.32463,14.55992,5.17651,1.34521Z" transform="translate(-157.81737 -86.74324)" fill="#2f2e41"/><polygon points="508.377 662.998 492.042 662.997 484.271 591.634 508.38 591.635 508.377 662.998" fill="#9e616a"/><ellipse cx="600.96572" cy="215.22911" rx="32.60247" ry="36.92615" fill="#9e616a"/><path d="M644.40209,727.57609c-.08217-.11773-8.21216-11.95775-7.66247-26.04618.0567-1.45319.949-2.84124,1.89374-4.31118.90425-1.40665,1.83951-2.8617,1.89846-4.26743.37017-8.82243.7734-17.48107,1.199-25.73535.27567-5.34976-1.12014-11.00849-2.47014-16.4811-1.44284-5.84905-2.93479-11.89725-2.52026-17.83564,2.31444-33.15019,12.65225-64.33163,17.286-69.58,10.2614-11.62225,73.05449-45.38573,75.72245-46.817l.10825-.05816,80.39857,10.22071.30874.03955.05772.34573c.05187.31083,5.05736,31.32056-6.62757,50.48562a30.05991,30.05991,0,0,1-20.442,14.41462c-34.42039,6.89974-83.937,11.914-88.32756,12.35141l-16.76449,88.58958a14.281,14.281,0,0,1-1.93338,15.97205l-1.374,1.50577-1.59609,8.43528-5.89731,8.95319H644.52842Z" transform="translate(-157.81737 -86.74324)" fill="#2f2e41"/><path d="M721.88889,521.43924l15.145-25.73024-7.75124-45.5793,1.39869-64.72528,2.79243-9.64186c2.65194-9.09371,8.58233-16.59557,16.27067-20.58148l18.7973-9.74609a8.19008,8.19008,0,0,1,7.4135-.1,9.93538,9.93538,0,0,1,4.95342,5.8765c4.141.63609,30.59686,5.78856,36.32317,34.0222,2.12956,10.50037,3.34634,31.28659,3.61647,61.78214a517.39531,517.39531,0,0,1-3.63979,65.91092c-.192,1.60069-1.54792,3.12182-2.8592,4.59269-1.19624,1.342-2.43326,2.72955-2.60633,3.99289-.16926,1.23542.63721,2.54157,1.49092,3.924.92078,1.49134,1.87289,3.03341,1.62166,4.66155-.56582,3.66718-.89859,7.39251-1.22038,10.995a129.16924,129.16924,0,0,1-1.89836,14.76221,142.33791,142.33791,0,0,1-4.29527,14.99628c-1.15352,3.535-2.34627,7.19009-3.28359,10.76094l-.07456.28385-.2578.04978a.07005.07005,0,0,1-.01839.00233C803.54725,581.94827,802.60626,571.63217,721.88889,521.43924Z" transform="translate(-157.81737 -86.74324)" fill="#6c63ff"/><path d="M674.98314,770.24324l-60.84052-.00255v-.87159a28.536,28.536,0,0,1,6.93707-18.96556,22.22384,22.22384,0,0,1,16.74375-7.85536h.00151l11.11332-9.54928,20.735,9.55074,5.311.00024Z" transform="translate(-157.81737 -86.74324)" fill="#2f2e41"/><path d="M449.82516,470.12386l1.77032,19.78435s.76652,16.42618,3.194,20.05818c2.40919,3.61383,68.15044,4.07011,68.15044,4.07011s4.34382-23.41646,8.08532-43.91264Z" transform="translate(-157.81737 -86.74324)" fill="#ffb6b6"/><polygon points="485.51 634.982 499.254 632.206 495.32 576.692 475.036 580.789 485.51 634.982" fill="#ffb6b6"/><polygon points="437.326 643.115 451.335 643.115 458 587.874 437.324 587.875 437.326 643.115" fill="#ffb6b6"/><path d="M617.56771,707.12658,590.0395,709.685,575.024,598.39736c-49.4955,8.51243-96.19,11.23938-136.57877.94185-13.67465-3.43841-22.03353-17.55828-18.67008-31.53767q.23586-.98028.54535-1.93955c4.83376-14.748,24.44076-28.91026,34.40974-45.1311l55.22718,22.66224L512.46,553.62646l70.73646-9.15352c14.22531-1.84079,27.217,8.45582,29.01765,22.99812q.14259,1.15181.18634,2.313Z" transform="translate(-157.81737 -86.74324)" fill="#2f2e41"/><path d="M659.4193,683.691l-27.5282,2.55829L581.978,584.16833c-49.4955,8.51244-96.19,11.23938-136.57874.94185-13.67464-3.4384-22.03353-17.55828-18.67007-31.53767q.2358-.98016.54534-1.93954c4.83376-14.748,17.48681-25.183,27.45579-41.40389l72.81682,1.1061L519.414,539.39743l70.73646-9.15352c14.22532-1.84079,27.217,8.45583,29.01765,22.99812q.14259,1.15181.18634,2.313Z" transform="translate(-157.81737 -86.74324)" fill="#2f2e41"/><circle cx="324.92843" cy="226.33046" r="33.77904" fill="#ffb6b6"/><path d="M465.41174,353.31547l27.1109,3.18952a5.53214,5.53214,0,0,1,4.75821,4.31316l4.31148,19.72906L528.469,412.19779s9.65111,18.09591,6.032,38.60464-5.20962,35.7476-5.20962,35.7476-72.09608,27.03184-74.50885,23.41268-3.19581-20.0584-3.19581-20.0584l-9.6511-107.36914s10.85753-18.0959,16.88951-18.0959C462.71805,364.308,462.21865,355.54628,465.41174,353.31547Z" transform="translate(-157.81737 -86.74324)" fill="#6c63ff"/><polygon points="305.847 336.909 366.461 403.55 377.253 396.909 305.847 336.909" opacity="0.2" style="isolation:isolate"/><ellipse cx="372.20691" cy="398.14765" rx="6.8838" ry="8.26056" fill="#6c63ff"/><path d="M627.6881,549.86814a13.84442,13.84442,0,0,1-11.51246-17.836l-84.83182-72.63953,23.98678-8.84626,79.15805,72.52644a13.91943,13.91943,0,0,1-6.80055,26.79533Z" transform="translate(-157.81737 -86.74324)" fill="#ffb6b6"/><path d="M473.98767,380.7398s-17.15155,4.38676-14.10982,24.425,51.97377,59.97852,59.66788,66.65217,58.502,27.542,58.502,27.542l18.29347-21.09093Z" transform="translate(-157.81737 -86.74324)" fill="#6c63ff"/><path d="M643.25529,522.98042a13.8444,13.8444,0,0,1-13.95166-16.00032l-94.37346-59.72092,22.46993-12.19525,88.74214,60.4228a13.91943,13.91943,0,0,1-2.887,27.49369Z" transform="translate(-157.81737 -86.74324)" fill="#ffb6b6"/><path d="M466.88579,377.64625s-16.345,6.80148-10.46061,26.19629,60.03916,51.90369,68.61093,57.40476,61.8475,18.86625,61.8475,18.86625l15.07921-23.49671Z" transform="translate(-157.81737 -86.74324)" fill="#6c63ff"/><path d="M498.11,280.78265c-11.71271-8.05537-22.02711-9.28241-30.49972-6.99772a11.13793,11.13793,0,0,0-4.45535-3.9562c-6.608-16.65041-26.71772-26.64982-43.9756-21.78893-17.36952,4.89232-29.35408,24.13258-26.08578,41.87958,2.02543,11.00042,8.94851,20.52611,11.73311,31.35932,5.39035,20.97118-7.75906,44.99364-28.32966,51.75371,19.47657,3.91074,40.91555-7.98605,47.90284-26.58223,3.39373-9.03245,3.59837-18.89421,4.02986-28.53355.4309-9.63933,1.20806-19.56845,5.5764-28.172A28.78992,28.78992,0,0,1,447.78441,276.377a10.98937,10.98937,0,0,0,1.60474,9.89319c-4.56757,5.72185-7.0539,11.9097-7.0539,15.61541-9.48863,17.34213,4.08027,32.23829,21.42277,41.7267a35.53014,35.53014,0,0,0,22.70046,3.95754l.72555-3.09718.983,2.78992s11.29119,37.29294,15.01559,39.48063c-1.41331-6.63689-3.03223-37.36661-3.819-43.84379-1.08923-8.81581,2.70778-21.94032,5.44677-29.92165a47.1114,47.1114,0,0,0,2.57935-15.28924V297.461l2.667,8.56653,9.70948-4.14194C517.95981,291.52464,519.7662,279.7625,498.11,280.78265Z" transform="translate(-157.81737 -86.74324)" fill="#2f2e41"/><path d="M640.26517,547.11552A13.84441,13.84441,0,0,0,651.137,528.882L733.336,453.276,709.05021,445.287l-76.53278,75.29153a13.91943,13.91943,0,0,0,7.74774,26.53695Z" transform="translate(-157.81737 -86.74324)" fill="#9e616a"/><path d="M787.86307,372.63606s17.29651,3.775,14.96823,23.90861-49.8112,61.78624-57.26348,68.7289-57.48712,29.602-57.48712,29.602l-19.03085-20.42805Z" transform="translate(-157.81737 -86.74324)" fill="#6c63ff"/><path d="M636.5072,707.43143l20.95356-10.501,3.9492,9.21312,26.4965,5.35611a6.26129,6.26129,0,0,1,1.22667,11.89232l-25.601,10.97384-8.31909-7.22169,2.18342,9.85174-9.65259,4.13758Z" transform="translate(-157.81737 -86.74324)" fill="#2f2e41"/><path d="M591.48688,723.36875l23.396-1.39642v10.02386l22.24324,15.362a6.26129,6.26129,0,0,1-3.55787,11.41375H605.71443l-4.801-9.91514-1.87456,9.91514h-10.502Z" transform="translate(-157.81737 -86.74324)" fill="#2f2e41"/><path d="M803.47014,281.98655c-4.26262-5.51434-12.93646-7.86909-18.48035-3.64493,4.3084-2.787,5.674-8.90213,3.86057-13.70222-1.81338-4.80008-6.21745-8.27836-11.03313-10.05-4.81562-1.77167-10.04415-2.04286-15.17535-2.02358-6.69626.02516-13.56019.55483-19.65463,3.32947-6.09438,2.77464-11.33967,8.17825-12.3373,14.79984a13.14293,13.14293,0,1,0-1.841,25.16422c3.40408-.7297,6.3669-2.7669,9.6133-4.02428,3.24646-1.25739,7.31069-1.57537,9.87039.78439,3.48223,3.21019,2.891,10.108,7.35514,11.68971,2.46675.874,5.20155-.524,7.78528-.108,3.0672.49393,5.22121,3.51465,5.72774,6.57981s-.274,6.18054-1.04869,9.18909q-2.585,10.03871-5.16993,20.0774l2.0217-.50781a45.3483,45.3483,0,0,0,42.17689-37.57882C808.32418,295.09229,807.73271,287.501,803.47014,281.98655Z" transform="translate(-157.81737 -86.74324)" fill="#2f2e41"/><path d="M1018.30207,771.25676h-859.294a1.19069,1.19069,0,1,1,0-2.38137h859.294a1.19069,1.19069,0,1,1,0,2.38137Z" transform="translate(-157.81737 -86.74324)" fill="#ccc"/><path d="M408.32555,738.0118c3.06907-24.67879,18.36364-48.99457,41.89974-57.02572a114.58053,114.58053,0,0,0,.00568,78.66728c3.61659,9.78275,8.65773,20.28695,5.25584,30.14648-2.11661,6.13488-7.29461,10.8286-13.08258,13.76346-5.78832,2.93486-12.21215,4.33367-18.55558,5.70449l-1.24843,1.03252C412.53012,787.56148,405.25649,762.69059,408.32555,738.0118Z" transform="translate(-157.81737 -86.74324)" fill="#e6e6e6"/><path d="M450.45885,681.45272a97.93552,97.93552,0,0,0-24.34662,55.11808,42.17422,42.17422,0,0,0,.47973,13.20533,24.18892,24.18892,0,0,0,6.01608,11.21931c2.71158,2.97922,5.83023,5.71262,7.77039,9.2991a14.81091,14.81091,0,0,1,.72359,12.09107c-1.713,4.91306-5.08911,8.91763-8.52679,12.719-3.81689,4.22072-7.84831,8.54426-9.47078,14.13983-.19659.678-1.23709.3333-1.0408-.34366,2.82282-9.73532,12.27324-15.26517,16.78012-24.03364,2.103-4.09154,2.9857-8.84162,1.01417-13.16065-1.724-3.77681-4.93758-6.59827-7.70918-9.59106a25.81135,25.81135,0,0,1-6.29117-10.75089,38.98921,38.98921,0,0,1-.98566-13.13817,95.01491,95.01491,0,0,1,6.93933-28.87425,99.67232,99.67232,0,0,1,17.92233-28.72147c.46864-.52478,1.19083.30069.72526.822Z" transform="translate(-157.81737 -86.74324)" fill="#fff"/><path d="M426.40726,729.9378a14.69345,14.69345,0,0,1-11.18462-15.39193c.05585-.703,1.1509-.64924,1.095.05469A13.6058,13.6058,0,0,0,426.75091,728.897c.68616.16314.33858,1.203-.34365,1.0408Z" transform="translate(-157.81737 -86.74324)" fill="#fff"/><path d="M431.03421,759.66594A28.32042,28.32042,0,0,0,443.681,743.35545c.199-.67726,1.23954-.3328,1.0408.34365a29.45749,29.45749,0,0,1-13.19461,16.94579c-.60778.36053-1.09744-.62039-.493-.979Z" transform="translate(-157.81737 -86.74324)" fill="#fff"/><path d="M437.12072,699.86469a8.31724,8.31724,0,0,0,7.8819-.40011c.60291-.368,1.09195.6133.493.979a9.32012,9.32012,0,0,1-8.71851.462.56645.56645,0,0,1-.34857-.69223.5508.5508,0,0,1,.69222-.34857Z" transform="translate(-157.81737 -86.74324)" fill="#fff"/><path d="M521.96664,725.0654c-.36993.24053-.73986.48105-1.11025.73083a109.53264,109.53264,0,0,0-14.005,10.93413c-.34238.30528-.68476.61982-1.01766.93431a115.47236,115.47236,0,0,0-25.07816,34.3289A112.13691,112.13691,0,0,0,474.613,787.886c-2.26657,7.52072-4.12572,15.85544-8.61234,22.00709a19.23675,19.23675,0,0,1-1.4987,1.85011H423.95669c-.09215-.04624-.18474-.08328-.27734-.12952l-1.61885.074c.065-.28677.13867-.58279.20371-.86956.037-.1665.08311-.333.12015-.49951.02756-.111.05556-.22206.07408-.3238.009-.037.01852-.074.02755-.10174.01852-.10175.04653-.19429.065-.28677q.61046-2.48374,1.25795-4.96755c0-.00926,0-.00926.009-.01852a164.88325,164.88325,0,0,1,13.87585-36.42874c.18519-.34227.36994-.69379.57365-1.03606a107.00459,107.00459,0,0,1,9.61146-14.57891,94.60062,94.60062,0,0,1,6.29969-7.20617,78.6641,78.6641,0,0,1,19.685-14.74541c14.54209-7.678,31.37785-10.61963,46.91908-5.92959C521.18025,724.81568,521.56916,724.93588,521.96664,725.0654Z" transform="translate(-157.81737 -86.74324)" fill="#e6e6e6"/><path d="M521.87549,725.58a97.93546,97.93546,0,0,0-52.6243,29.35035,42.1741,42.1741,0,0,0-7.56748,10.83255,24.1889,24.1889,0,0,0-1.9513,12.58009c.37135,4.01129,1.21572,8.07141.60552,12.10312a14.81092,14.81092,0,0,1-6.70191,10.08969c-4.32571,2.89149-9.4324,4.05624-14.4659,5.02172-5.58874,1.072-11.41068,2.09689-16.075,5.58779-.56515.423-1.18842-.47868-.62412-.901,8.1152-6.07357,18.99018-4.799,27.8679-9.08673,4.14251-2.00071,7.70718-5.26194,8.73338-9.89743.89737-4.05355.03023-8.24112-.38087-12.29939A25.8114,25.8114,0,0,1,460.141,766.589a38.98943,38.98943,0,0,1,7.12309-11.08352,95.01507,95.01507,0,0,1,22.925-18.87651,99.6721,99.6721,0,0,1,31.60229-12.142c.69014-.13685.76978.957.08415,1.093Z" transform="translate(-157.81737 -86.74324)" fill="#fff"/><path d="M473.48027,749.81191a14.69345,14.69345,0,0,1,.33672-19.0235c.46785-.52769,1.30982.17453.84135.70292a13.60581,13.60581,0,0,0-.27705,17.69646c.44964.54337-.45395,1.16438-.901.62412Z" transform="translate(-157.81737 -86.74324)" fill="#fff"/><path d="M459.27625,776.33391a28.32041,28.32041,0,0,0,19.91778-5.40879c.56663-.42095,1.19006.48057.62412.901a29.45748,29.45748,0,0,1-20.7377,5.5862c-.70234-.07806-.50273-1.15608.1958-1.07843Z" transform="translate(-157.81737 -86.74324)" fill="#fff"/><path d="M500.14047,732.25046a8.31719,8.31719,0,0,0,6.53415,4.426c.703.06913.50261,1.14711-.1958,1.07843a9.3201,9.3201,0,0,1-7.23937-4.88029.56645.56645,0,0,1,.13845-.76257.5508.5508,0,0,1,.76257.13845Z" transform="translate(-157.81737 -86.74324)" fill="#fff"/><path d="M843.30207,813.25676h-509.294a1.19068,1.19068,0,1,1,0-2.38137h509.294a1.19069,1.19069,0,1,1,0,2.38137Z" transform="translate(-157.81737 -86.74324)" fill="#ccc"/></svg>