<svg xmlns="http://www.w3.org/2000/svg" width="401.99899" height="607.31958" viewBox="0 0 401.99899 607.31958" xmlns:xlink="http://www.w3.org/1999/xlink"><polygon points="263.59649 237.85226 256.28537 161.08552 167.33345 170.83368 167.33345 236.63374 263.59649 237.85226" fill="#ffb6b6"/><polygon points="297.10141 550.3996 297.10141 607.31958 295.18142 606.44958 63.15146 606.44958 69.85141 565.05963 70.98142 558.07959 71.87143 552.60962 114.13144 552.19958 114.17141 552.18957 131.04142 552.0296 135.33146 551.98962 138.68142 551.94958 189.3414 551.45959 258.40146 550.7796 297.10141 550.3996" fill="#2f2e41"/><polygon points="166.11493 218.35596 262.37799 226.88557 328.02783 293.20639 303.19839 452.92096 297.1058 568.68036 68.02409 565.02478 94.83152 429.7691 82.64633 245.77264 166.11493 218.35596" fill="#e6e6e6"/><path d="M283.63144,601.29962l-3.85004,5.14996h-99.06c-9.03998-8.96997-23.77997-21.19-39.71997-33.67999-2.16003-1.70996-4.34998-3.40997-6.54999-5.10999-.69-.53998-1.38-1.07001-2.07001-1.59998l-.01001-.01001c-3.60999-2.79004-7.23999-5.57001-10.84003-8.29999-2.46997-1.88-4.92999-3.74005-7.35999-5.56006-.01001-.00995-.01996-.01996-.03998-.02997-.78003-.59003-1.57001-1.17999-2.35004-1.76001-14.31995-10.73999-27.35999-20.21002-35.65997-26.21997h-.01001c-2.42999-1.75-4.45996-3.20001-5.97998-4.30005-2.14001-1.53998-3.33002-2.37994-3.33002-2.37994l2.45001-1.91003c.02002,.01001,.02002,0,.02002,0l10-7.72998,.09998-.08002,6.47998-5.01001,39.67004-30.69-1.65002-1.46997,32.89001,11.57996,36.25,20.93005,31.88,18.39996,10,5.78003c4.82001,2.77997,9.22998,6.15997,13.13995,10.03998,2.82001,2.79999,5.39001,5.85999,7.64001,9.14001,.89001,1.27002,1.72003,2.58002,2.51001,3.91998l.22003,.38,10.25995,17.45001,14.21002,32.38,.76001,.69Z" fill="#6c63ff"/><path d="M232.31712,606.45447h62.86339l-11.55154-5.15442-7.31113-3.26562c-15.45081-6.89679-32.91223-2.961-44.00073,8.41998l.00002,.00006Z" fill="#ffb6b6"/><circle cx="185.00198" cy="128.79475" r="81.64083" fill="#ffb6b6"/><path d="M100.31487,246.3819s-37.77411-7.31113-53.61486,28.02594c-15.84076,35.33707-25.58891,86.51489-25.58891,86.51489l85.29637,3.65555-6.0926-118.19641v.00003Z" fill="#e6e6e6"/><path d="M200.29142,606.44958H125.21145l-15.05005-14.26996-.03998,.02997,.25-.25,24.08002-24.29999,1.52997-1.54999,7-7.04999,.17999-.19,2.89001,3.02997,4.22998,4.44,.22003,.22998,23.12,24.24005c9.65002,2.79999,18.47998,7.87994,25.76001,14.78998,.31,.27997,.60999,.57001,.90997,.84998h.00002Z" fill="#ffb6b6"/><path d="M118.09707,548.43451l14.80315,13.6286c13.8681,7.8775,31.8871,12.1095,34.41911,12.67969l3.45308,1.27209c3.61142,4.36194,8.21519,7.79541,13.4259,10.01288,12.95673,5.72626,26.41383,3.68256,30.05672-4.56384h0c3.64288-8.24634-3.90762-19.57062-16.86974-25.29718-5.14642-2.35858-10.78291-3.45038-16.43777-3.18396l-.65369-.27911-40.12621-19.36005" fill="#ffb6b6"/><path d="M140.52601,483.99322c2.43704,0-38.99263,45.08527-38.99263,45.08527l35.90796,27.93481,12.83282-52.30518-9.74815-20.71484v-.00006Z" fill="#6c63ff"/><path d="M150.84684,566.34076l-12.78226-11.83179-4.44756-4.10638-17.81475-16.48663-9.57762-9.96747-13.62304-14.15918-6.75057-7.01868-4.55725-4.72787-4.1308-4.30133,1.66937-17.32739,3.44843-35.70261,4.42323-45.85291,3.44836-35.7392,.41433-4.28915-14.69527-21.22055-55,27-14.65062,109.22443-2.48583,11.77087v.00003c-2.05896,9.7388,1.35264,19.82571,8.90039,26.31528l50.51464,43.43274,6.48253,5.56866,9.62626,8.28595,31.6328,27.19739,39.95524-26.06415-.00002-.00006Z" fill="#e6e6e6"/><circle cx="66.19631" cy="453.53024" r="62.1445" fill="#ffb6b6"/><path d="M92.86054,463.66794l1.05061-19.01178-8.52964-14.62225s-2.43704-49.95932-21.93335-47.52228C43.95184,384.9487,1.30366,420.28576,.08514,433.68948c-1.21852,13.40372,10.7863,70.9201,26.80743,70.67413,11.55853-.17749,8.97886,27.24594,65.97886,6.24597,6.46799-2.38293-18.4566-17.21265-14.80104-25.74228s14.79014-21.19937,14.79014-21.19937c0,0,.00002,0,.00002,0Z" fill="#2f2e41"/><g><path d="M156.58282,281.54571s69.47862-68.63577,96.95683-56.36104c27.47823,12.27473,74.26616,70.35152,74.26616,70.35152l-67.47415,54.63992-103.74884-68.6304Z" fill="#e6e6e6"/><g><g><path d="M141.34538,422.77841s9.64397-1.87234,8.84291,3.51785-16.72308,27.26462-21.71274,23.76846c-4.98965-3.49615-2.22942-14.65533-.29195-16.57108,1.93748-1.91577,13.1618-10.71524,13.1618-10.71524h-.00003Z" fill="#6c63ff"/><path d="M150.20814,424.18353c-8.50725,3.2583-18.76578,20.48767-20.37726,24.55133l49.1971,45.73599c3.53712,2.42996,8.12007,2.47833,11.67444,.12338,13.53551-8.96661,19.38683-26.48935,21.6698-36.13657,1.09032-4.60779-1.09566-9.37796-5.31459-11.60239,0,0-56.84949-22.67175-56.84947-22.67175h-.00002Z" fill="#6c63ff"/></g><ellipse cx="131.20802" cy="428.81995" rx="6.5" ry="5.5" transform="translate(-126.80873 62.03738) rotate(-18.11206)" fill="#6c63ff"/></g><path d="M248.78976,424.32846l-44.5347,10.17093c-9.78448-2.25027-19.96565-2.12445-29.69168,.3667-24.42886,5.90128-41.18102,23.27994-37.42725,38.82123,3.75381,15.54132,26.59323,23.35669,51.0126,17.45428,9.79364-2.22461,18.91188-6.763,26.59161-13.23511l43.47751-7.64157-9.43253-45.97702,.00439,.04062,.00003-.00006Z" fill="#ffb6b6"/><path d="M321.59778,291.14419l-59.24503,46.26044,55.17239,62.31189-68.73981,24.57132,9.43253,45.97702c6.03201-.90137,17.90863-2.79321,32.46762-5.70651l27.18317-6.04877c27.67392-6.83636,57.75409-16.56683,75.60791-29.34979,39.64258-28.38333-71.87881-138.01562-71.87881-138.01562l.00003,.00003Z" fill="#e6e6e6"/></g><path d="M152.58622,24.38528C168.73248,18.71054,178.96405-.27711,192.89039,.00307c30.24931,.6095,58.7785,22.21598,62.31261,25.39464,14.715,13.23395,20.33685,27.82989,26.81268,44.64417,6.858,17.80521,5.08862,45.58469,2.56674,65.00826-3.68808,28.40109-22.08603,36.08383-17.65546,54.08386,3.10138,12.59949,13.99725,16.48203,26.98871,27.27118,24.57236,20.40773,33.73953,46.5058,43.09677,73.1434,22.29608,63.47363,8.51044,131.62997-.00415,132.31555-1.79926,.14499-3.83167-3.93994-7.89645-12.1087-12.45175-25.02435-8.72247-33.54498-15.61685-41.59039-12.33289-14.3916-33.24243,2.39548-59.76979-10.49588-20.89886-10.15631-30.04668-31.32635-35.37636-43.66174-3.06415-7.09097-15.98502-36.9939-5.71864-68.75513,9.50885-29.41838,27.86377-32.79024,37.59929-67.24007,2.0524-7.26279,9.37881-26.33363-2.04272-38.78673-5.7888-6.31133-.3148,32.60736-8.52982,27.07852-19.97594-13.44382-19.16772-77.75567-38.11197-93.30795-9.06464-7.4416-21.70584-9.29692-31.20097-7.26605-22.54013,4.82168-60.50052,31.64352-61.26427,56.48619-1.22947,39.98131,13.76695,55.64267,48.90579,81.58485,3.79688,2.80315-9.37576,2.57745-14.98647,1.71928-28.5694-4.37044-43.49514-38.95346-46.5722-46.71552-9.01659-22.74519-6.46448-42.65308-4.49059-58.05051,2.52294-19.68212,5.23859-40.86489,21.6917-56.716,9.74087-9.38401,20.37473-13.1215,38.95824-19.65307l.00002,.00003Z" fill="#2f2e41"/></svg>