<svg id="visual" viewBox="0 0 900 600" width="900" height="600" xmlns="http://www.w3.org/2000/svg" xmlns:xlink="http://www.w3.org/1999/xlink" version="1.1"><rect x="0" y="0" width="900" height="600" fill="#001220"></rect><path d="M0 398L21.5 394.5C43 391 86 384 128.8 378.2C171.7 372.3 214.3 367.7 257.2 371.3C300 375 343 387 385.8 390.7C428.7 394.3 471.3 389.7 514.2 395.2C557 400.7 600 416.3 642.8 414C685.7 411.7 728.3 391.3 771.2 389.3C814 387.3 857 403.7 878.5 411.8L900 420L900 601L878.5 601C857 601 814 601 771.2 601C728.3 601 685.7 601 642.8 601C600 601 557 601 514.2 601C471.3 601 428.7 601 385.8 601C343 601 300 601 257.2 601C214.3 601 171.7 601 128.8 601C86 601 43 601 21.5 601L0 601Z" fill="#fa7268"></path><path d="M0 420L21.5 424.2C43 428.3 86 436.7 128.8 442.3C171.7 448 214.3 451 257.2 452.3C300 453.7 343 453.3 385.8 444.7C428.7 436 471.3 419 514.2 410.3C557 401.7 600 401.3 642.8 406.2C685.7 411 728.3 421 771.2 432.5C814 444 857 457 878.5 463.5L900 470L900 601L878.5 601C857 601 814 601 771.2 601C728.3 601 685.7 601 642.8 601C600 601 557 601 514.2 601C471.3 601 428.7 601 385.8 601C343 601 300 601 257.2 601C214.3 601 171.7 601 128.8 601C86 601 43 601 21.5 601L0 601Z" fill="#ef5f67"></path><path d="M0 492L21.5 485.8C43 479.7 86 467.3 128.8 458.2C171.7 449 214.3 443 257.2 441.2C300 439.3 343 441.7 385.8 450.8C428.7 460 471.3 476 514.2 483.5C557 491 600 490 642.8 488.7C685.7 487.3 728.3 485.7 771.2 488.3C814 491 857 498 878.5 501.5L900 505L900 601L878.5 601C857 601 814 601 771.2 601C728.3 601 685.7 601 642.8 601C600 601 557 601 514.2 601C471.3 601 428.7 601 385.8 601C343 601 300 601 257.2 601C214.3 601 171.7 601 128.8 601C86 601 43 601 21.5 601L0 601Z" fill="#e34c67"></path><path d="M0 497L21.5 499.8C43 502.7 86 508.3 128.8 515.3C171.7 522.3 214.3 530.7 257.2 525.5C300 520.3 343 501.7 385.8 492.8C428.7 484 471.3 485 514.2 489.5C557 494 600 502 642.8 510.3C685.7 518.7 728.3 527.3 771.2 529.7C814 532 857 528 878.5 526L900 524L900 601L878.5 601C857 601 814 601 771.2 601C728.3 601 685.7 601 642.8 601C600 601 557 601 514.2 601C471.3 601 428.7 601 385.8 601C343 601 300 601 257.2 601C214.3 601 171.7 601 128.8 601C86 601 43 601 21.5 601L0 601Z" fill="#d53867"></path><path d="M0 569L21.5 564.8C43 560.7 86 552.3 128.8 547.8C171.7 543.3 214.3 542.7 257.2 543.8C300 545 343 548 385.8 553C428.7 558 471.3 565 514.2 567.7C557 570.3 600 568.7 642.8 562.8C685.7 557 728.3 547 771.2 546.3C814 545.7 857 554.3 878.5 558.7L900 563L900 601L878.5 601C857 601 814 601 771.2 601C728.3 601 685.7 601 642.8 601C600 601 557 601 514.2 601C471.3 601 428.7 601 385.8 601C343 601 300 601 257.2 601C214.3 601 171.7 601 128.8 601C86 601 43 601 21.5 601L0 601Z" fill="#c62368"></path></svg>
